# xmcd CD database file
#
# Track frame offsets:
#	150
#	14302
#	31417
#	45638
#	65043
#	81189
#	102935
#	115437
#	134080
#	154421
#
# Disc length: 2482 seconds
#
# Revision: 0
# Processed by: cddbd v1.5.1PL2 Copyright (c) Steve Scherf et al.
# Submitted via: CDex 1.51
#
DISCID=8c09b00a
DTITLE=Williams, Chas - Ring Of Fire
DYEAR=2003
DGENRE=Country
TTITLE0=Canterbury
TTITLE1=Ring of Fire
TTITLE2=Snow Day
TTITLE3=C III
TTITLE4=The New 1
TTITLE5=Giant's Causeway
TTITLE6=Gold Rush
TTITLE7=First Steps
TTITLE8=Spanish Medallion
TTITLE9=IMHO
EXTD=YEAR: 2003
EXTT0=
EXTT1=
EXTT2=
EXTT3=
EXTT4=
EXTT5=
EXTT6=
EXTT7=
EXTT8=
EXTT9=
PLAYORDER=
